<?xml version="1.0" encoding="UTF-8"?>
<svg version="1.1" xmlns="http://www.w3.org/2000/svg" width="671" height="372">
<path d="M0 0 C3.01729699 -0.29680652 5.82946248 -0.39879534 8.84912109 -0.37231445 C10.22516006 -0.37779045 10.22516006 -0.37779045 11.6289978 -0.38337708 C14.67732995 -0.39151478 17.72513538 -0.37783537 20.7734375 -0.36328125 C22.89417521 -0.36276258 25.0149134 -0.36328053 27.13565063 -0.36479187 C31.59294769 -0.36470197 36.05006456 -0.35424538 40.50732422 -0.33618164 C46.19413113 -0.3136318 51.88067143 -0.31292355 57.5675106 -0.31969929 C61.95498989 -0.32305995 66.34240955 -0.31636762 70.72987747 -0.30657005 C72.82443554 -0.3027434 74.91900029 -0.30155922 77.01356125 -0.3031559 C91.68197625 -0.30502325 104.83581922 0.56760202 118.8125 5.375 C119.70130859 5.66632813 120.59011719 5.95765625 121.50585938 6.2578125 C126.74724917 8.02692704 131.2719816 10.13705418 136 13 C137.29854373 13.61377375 138.60771266 14.20722966 139.9375 14.75 C140.948125 15.1625 141.95875 15.575 143 16 C143 16.66 143 17.32 143 18 C143.55171875 18.09410156 144.1034375 18.18820313 144.671875 18.28515625 C147.62405565 19.1916144 149.72721344 20.66343518 152.25 22.4375 C153.14203125 23.05496094 154.0340625 23.67242187 154.953125 24.30859375 C155.62859375 24.86675781 156.3040625 25.42492187 157 26 C157 26.66 157 27.32 157 28 C157.99 28 158.98 28 160 28 C160 28.66 160 29.32 160 30 C160.556875 30.226875 161.11375 30.45375 161.6875 30.6875 C164.64176591 32.36424552 166.66847851 34.54576685 169 37 C169.66 37.66 170.32 38.32 171 39 C171 39.99 171 40.98 171 42 C171.99 42.33 172.98 42.66 174 43 C194.39347837 68.09966568 201.46511388 99.80095439 198.7890625 131.49853516 C196.43804509 153.06288617 187.5019348 174.08644142 174 191 C173.49082031 191.66128906 172.98164063 192.32257813 172.45703125 193.00390625 C171.36419311 194.38517674 170.19174505 195.70310097 169 197 C168.34 197 167.68 197 167 197 C166.71125 197.598125 166.4225 198.19625 166.125 198.8125 C165 201 165 201 163 204 C162.01 204 161.02 204 160 204 C159.70802734 204.83724609 159.70802734 204.83724609 159.41015625 205.69140625 C157.41094784 208.96434856 154.54128496 210.80225189 151.4375 212.9375 C150.80561768 213.37916504 150.17373535 213.82083008 149.52270508 214.27587891 C142.7450137 218.95808142 135.80110448 222.81519417 128.21484375 226.03125 C126.02087998 226.95675883 126.02087998 226.95675883 124.06640625 228.03125 C110.58528302 234.96890406 93.709301 234.46993511 78.921875 234.546875 C77.05298751 234.56634285 75.18411104 234.58689432 73.31524658 234.60845947 C69.43284262 234.65040343 65.5505164 234.68322223 61.66796875 234.70849609 C56.73053082 234.74083294 51.7934652 234.7905514 46.85624313 234.84641647 C43.00921611 234.88901135 39.16215073 234.92531985 35.31504059 234.9595108 C33.4956474 234.97585294 31.67626449 234.99339023 29.85689545 235.01222992 C8.52085797 235.22027335 8.52085797 235.22027335 -1 234 C-2.87788672 232.12211328 -2.12008587 229.40834091 -2.12442017 226.91021729 C-2.11902725 225.59715607 -2.11902725 225.59715607 -2.11352539 224.25756836 C-2.11367142 223.3405867 -2.11381744 222.42360504 -2.1139679 221.47883606 C-2.1132684 218.43248164 -2.10547428 215.38618755 -2.09765625 212.33984375 C-2.0957922 210.23377007 -2.09436824 208.12769597 -2.09336853 206.0216217 C-2.08954231 200.46657117 -2.07971114 194.91154659 -2.06866455 189.35650635 C-2.05845267 183.6927526 -2.05387139 178.02899467 -2.04882812 172.36523438 C-2.03808896 161.24347815 -2.0210113 150.12174123 -2 139 C1.15287093 138.12845026 3.01424792 138.00922631 6.1953125 138.85546875 C6.99453125 139.06623047 7.79375 139.27699219 8.6171875 139.49414062 C9.44476563 139.72294922 10.27234375 139.95175781 11.125 140.1875 C11.929375 140.39697266 12.73375 140.60644531 13.5625 140.82226562 C19.66462151 142.46476958 25.05057886 144.62023154 31 147 C31.33 165.15 31.66 183.3 32 202 C39.96567961 202.08429291 47.92970826 202.16437999 55.89544678 202.20700073 C59.60627675 202.22797014 63.31673074 202.2559057 67.02734375 202.30175781 C70.6130168 202.3457799 74.19832937 202.36925324 77.78425217 202.37950897 C79.79245665 202.39030718 81.80051963 202.42143891 83.8085022 202.45318604 C92.80714119 202.45534331 100.49440078 200.89153049 109 198 C109.90755035 197.69902405 110.81510071 197.3980481 111.75015259 197.08795166 C122.32400239 193.44347811 131.72180049 186.33749502 140 179 C140.66 179 141.32 179 142 179 C142.26296875 178.42507812 142.5259375 177.85015625 142.796875 177.2578125 C144.06956652 174.86944984 145.53628026 172.9669732 147.25 170.875 C158.96181936 155.9381869 163.72543537 140.53570646 166 122 C165.03626465 122.03029297 164.0725293 122.06058594 163.07958984 122.09179688 C141.7115921 122.754933 120.37945833 123.15658195 99 123 C99.16371094 124.25683594 99.32742188 125.51367188 99.49609375 126.80859375 C100.09918182 132.23638634 100.11185202 137.60720338 100.0625 143.0625 C100.05798828 144.02349609 100.05347656 144.98449219 100.04882812 145.97460938 C100.03717706 148.31647422 100.02082025 150.65820181 100 153 C96.11725824 152.50353362 92.48643804 151.988977 88.8125 150.625 C85.32288005 149.40274733 81.84473342 148.42921438 78.25 147.5625 C74.02696897 146.5387349 69.89231782 145.37491753 65.75 144.0625 C60.49640341 142.41649683 55.21909464 141.01975648 49.87182617 139.71337891 C43.07847739 138.04281779 36.31969626 136.24823335 29.5625 134.4375 C28.46075439 134.14447998 27.35900879 133.85145996 26.22387695 133.54956055 C20.77174165 132.08328381 15.40652006 130.50336429 10.06665039 128.67211914 C6.73607265 127.58894365 3.3452394 126.79901575 -0.0625 126 C-4.2486872 124.99140835 -8.3729956 123.98884292 -12.375 122.375 C-15.2379683 121.28904651 -17.53439306 120.65528925 -20.5 120.12890625 C-26.33764824 118.9986949 -31.95125112 117.32525443 -37.625 115.5625 C-38.60984375 115.26279297 -39.5946875 114.96308594 -40.609375 114.65429688 C-43.41415771 113.79229366 -46.20888097 112.90518612 -49 112 C-50.21574707 111.61110596 -50.21574707 111.61110596 -51.45605469 111.21435547 C-53.33899805 110.57063207 -55.17661066 109.7969359 -57 109 C-57.33 108.01 -57.66 107.02 -58 106 C-55.0601452 105.0200484 -53.1831582 104.87651933 -50.12153625 104.87974548 C-49.11612793 104.87837082 -48.1107196 104.87699615 -47.07484436 104.87557983 C-45.9728923 104.87917511 -44.87094025 104.88277039 -43.7355957 104.88647461 C-41.99392624 104.88625557 -41.99392624 104.88625557 -40.21707153 104.8860321 C-36.36995593 104.88673011 -32.52288842 104.89451734 -28.67578125 104.90234375 C-26.01205869 104.90420833 -23.34833882 104.90568122 -20.68461609 104.90663147 C-14.38420709 104.90974057 -8.08381543 104.9179483 -1.78341407 104.92798096 C5.38943077 104.93915515 12.56227643 104.94465584 19.73512781 104.94967639 C34.49009407 104.96013125 49.24504673 104.97772257 64 105 C63.93941406 104.33468262 63.87882812 103.66936523 63.81640625 102.98388672 C63.54150683 99.94783412 63.2707177 96.91142821 63 93.875 C62.90460938 92.82828125 62.80921875 91.7815625 62.7109375 90.703125 C62.2754393 85.7882167 61.86324486 80.94027946 62 76 C67.84697409 76.60513038 72.98361178 78.19558893 78.5 80.1875 C79.82112793 80.65724243 79.82112793 80.65724243 81.16894531 81.13647461 C87.62820412 83.4534846 94.00028833 85.94235743 100.35546875 88.53125 C112.67136778 93.49457051 125.18895121 98.15797505 137.8203125 102.24609375 C144.58959634 104.43826354 151.12485525 106.7777734 157.53515625 109.88671875 C160.30183585 111.1363284 163.1085691 112.08095302 166 113 C163.36424392 96.88637065 160.07919797 82.50060297 150.77734375 68.703125 C149 66 149 66 149 64 C148.38125 63.773125 147.7625 63.54625 147.125 63.3125 C144.3707902 61.61137042 144.17849539 59.94623846 143 57 C141.20067421 55.93283296 141.20067421 55.93283296 139 55 C137.55292496 53.81602951 136.10793571 52.62919221 134.68359375 51.41796875 C120.74797968 39.68101305 105.02694502 33.05752779 86.62744141 32.79467773 C85.38660797 32.77473251 84.14577454 32.75478729 82.86734009 32.73423767 C81.52874879 32.71725879 80.19015623 32.70037979 78.8515625 32.68359375 C77.47007665 32.66299822 76.08859673 32.6420011 74.7071228 32.62062073 C71.08718702 32.56566822 67.46719692 32.51614176 63.84716797 32.46777344 C60.14676134 32.41736139 56.44643173 32.36182824 52.74609375 32.30664062 C45.49745563 32.19890708 38.24877131 32.09967591 31 32 C31 52.13 31 72.26 31 93 C20.11 93 9.22 93 -2 93 C-2.04514057 81.31727256 -2.08185252 69.63460281 -2.10362434 57.95180798 C-2.11407242 52.52732802 -2.1282503 47.1029107 -2.15087891 41.6784668 C-2.17257077 36.4459757 -2.18456091 31.21354493 -2.18975449 25.98101234 C-2.19345682 23.98227297 -2.20068632 21.98353699 -2.21146011 19.98482323 C-2.2259264 17.19057388 -2.22797998 14.39657554 -2.22705078 11.60229492 C-2.23424133 10.77151428 -2.24143188 9.94073364 -2.24884033 9.08477783 C-2.23480165 5.19691111 -2.20727666 3.31091499 0 0 Z " fill="#090909" transform="translate(265,63)"/>
<path d="M0 0 C1.00540833 -0.00137466 2.01081665 -0.00274933 3.04669189 -0.00416565 C4.14864395 -0.00057037 5.25059601 0.0030249 6.38594055 0.00672913 C8.12761002 0.00651009 8.12761002 0.00651009 9.90446472 0.00628662 C13.75158033 0.00698463 17.59864783 0.01477185 21.445755 0.02259827 C24.10947756 0.02446284 26.77319743 0.02593574 29.43692017 0.02688599 C35.73732916 0.02999509 42.03772083 0.03820282 48.33812219 0.04823548 C55.51096703 0.05940966 62.68381269 0.06491036 69.85666406 0.06993091 C84.61163033 0.08038577 99.36658299 0.09797709 114.12153625 0.12025452 C114.12153625 0.45025452 114.12153625 0.78025452 114.12153625 1.12025452 C113.02164368 1.14531067 111.9217511 1.17036682 110.78852844 1.19618225 C106.7032886 1.29043658 102.61821164 1.39061317 98.53315735 1.49256897 C96.76594354 1.53584966 94.99868976 1.57752957 93.23139954 1.61756897 C90.68944766 1.67543803 88.14769567 1.73908433 85.60591125 1.80384827 C84.42288422 1.82891701 84.42288422 1.82891701 83.21595764 1.85449219 C79.22394735 1.91155563 79.22394735 1.91155563 75.31660461 2.62599182 C72.23809571 3.31917848 69.30426953 3.23937284 66.14985657 3.23377991 C65.45676895 3.23392593 64.76368134 3.23407196 64.04959106 3.23422241 C61.76624893 3.23352759 59.48298909 3.22575536 57.19966125 3.21791077 C55.6135411 3.21604506 54.02742037 3.21462188 52.44129944 3.21362305 C48.2721751 3.2098099 44.10308576 3.19998989 39.93397522 3.18891907 C35.67748996 3.17867909 31.42099904 3.17411988 27.164505 3.16908264 C18.81683272 3.15836653 10.46918884 3.14130455 2.12153625 3.12025452 C3.44153625 4.77025452 4.76153625 6.42025452 6.12153625 8.12025452 C4.15894363 7.7241349 2.20145964 7.30263757 0.24653625 6.87025452 C-1.38928406 6.52220764 -1.38928406 6.52220764 -3.05815125 6.16712952 C-5.87846375 5.12025452 -5.87846375 5.12025452 -7.26127625 3.01087952 C-7.46494812 2.38697327 -7.66862 1.76306702 -7.87846375 1.12025452 C-4.93860894 0.14030292 -3.06162194 -0.00322616 0 0 Z M69.12153625 3.12025452 C73.12153625 4.12025452 73.12153625 4.12025452 73.12153625 4.12025452 Z " fill="#919192" transform="translate(214.8784637451172,167.87974548339844)"/>
<path d="M0 0 C2.00720923 0.28674418 4.0085944 0.61866701 6 1 C4.02 1.99 4.02 1.99 2 3 C1.67 33.36 1.34 63.72 1 95 C4.3 95 7.6 95 11 95 C11 95.33 11 95.66 11 96 C9.18757948 96.02687279 7.37504767 96.04633715 5.5625 96.0625 C4.55316406 96.07410156 3.54382813 96.08570313 2.50390625 96.09765625 C0 96 0 96 -1 95 C-1.10058243 92.08342371 -1.13615211 89.19049054 -1.12939453 86.2734375 C-1.13114685 85.35806213 -1.13289917 84.44268677 -1.13470459 83.49957275 C-1.13912461 80.45802951 -1.13618459 77.41654389 -1.1328125 74.375 C-1.1334855 72.2713215 -1.13445548 70.16764308 -1.13571167 68.06396484 C-1.13718885 63.64875551 -1.13503345 59.23356637 -1.13037109 54.81835938 C-1.1246738 49.14507439 -1.1279527 43.47183671 -1.13394356 37.79855347 C-1.13754864 33.45271444 -1.13641083 29.10688672 -1.13381577 24.76104736 C-1.13314635 22.6685587 -1.13397543 20.57606903 -1.13629532 18.48358154 C-1.13882098 15.56454734 -1.13498248 12.64559088 -1.12939453 9.7265625 C-1.13141876 8.8527594 -1.13344299 7.9789563 -1.13552856 7.07867432 C-1.11426236 1.11426236 -1.11426236 1.11426236 0 0 Z " fill="#717173" transform="translate(264,201)"/>
<path d="M0 0 C7.15168515 0.49895478 13.41291281 3.31563815 20 6 C16.52674819 7.1577506 13.63932552 7.06866652 10 7 C10 5.68 10 4.36 10 3 C8.68 3 7.36 3 6 3 C4.11375329 6.21654702 3.70952258 8.71432261 3.5859375 12.421875 C3.54726563 13.44667969 3.50859375 14.47148437 3.46875 15.52734375 C3.4378125 16.59082031 3.406875 17.65429688 3.375 18.75 C3.33632813 19.82894531 3.29765625 20.90789062 3.2578125 22.01953125 C3.16365369 24.67951775 3.07802613 27.3394994 3 30 C2.67 30 2.34 30 2 30 C1.66252749 26.12534889 1.33075778 22.25022962 1 18.375 C0.90460938 17.28058594 0.80921875 16.18617188 0.7109375 15.05859375 C0.57558594 13.46337891 0.57558594 13.46337891 0.4375 11.8359375 C0.35371094 10.86188965 0.26992188 9.8878418 0.18359375 8.88427734 C-0.00542023 5.91484768 -0.0308649 2.97460517 0 0 Z " fill="#504C51" transform="translate(327,139)"/>
<path d="M0 0 C5.19209404 -0.21192221 9.126739 0.4087311 14 2 C13.67 1.34 13.34 0.68 13 0 C20.625 0.875 20.625 0.875 24 2 C24.33 2.99 24.66 3.98 25 5 C27.475 5.495 27.475 5.495 30 6 C30.33 5.34 30.66 4.68 31 4 C31 4.66 31 5.32 31 6 C32.98 6 34.96 6 37 6 C37 7.32 37 8.64 37 10 C29.69211698 8.9626522 22.86695124 7.10160573 15.87109375 4.82861328 C10.64228714 3.148105 5.42809462 1.87423639 0 1 C0 0.67 0 0.34 0 0 Z " fill="#3C3B3D" transform="translate(314,202)"/>
<path d="M0 0 C0.33 0 0.66 0 1 0 C1 3.3 1 6.6 1 10 C-8.57 10 -18.14 10 -28 10 C-28 9.67 -28 9.34 -28 9 C-20.08 8.67 -12.16 8.34 -4 8 C-4 5.84365964 -4.4465236 4.07553648 -5 2 C-2.525 2.495 -2.525 2.495 0 3 C0 2.01 0 1.02 0 0 Z " fill="#111214" transform="translate(431,173)"/>
<path d="M0 0 C0.66 0.99 1.32 1.98 2 3 C3.8522367 4.00478037 3.8522367 4.00478037 6 4 C8.24755753 2.6483633 8.24755753 2.6483633 10 1 C10 1.66 10 2.32 10 3 C11.29233607 4.37310707 12.62437146 5.71034824 14 7 C8.83430258 9.58284871 0.48562683 5.57652386 -4.625 3.875 C-6.41874802 3.25599879 -8.21119723 2.63315012 -10 2 C-10 1.67 -10 1.34 -10 1 C-6.61292998 0.22581257 -3.47338282 -0.37550085 0 0 Z " fill="#494849" transform="translate(237,176)"/>
<path d="M0 0 C-5.05148732 4.28611046 -10.25483221 8.1824039 -17 9 C-17 7.68 -17 6.36 -17 5 C-11.09493185 1.17264102 -7.07487342 -0.64317031 0 0 Z " fill="#3F3E3D" transform="translate(409,280)"/>
<path d="M0 0 C0.33 0 0.66 0 1 0 C1 4.66666667 1 9.33333333 1 14 C0.01 14.495 0.01 14.495 -1 15 C-1.144375 15.928125 -1.28875 16.85625 -1.4375 17.8125 C-2.01925353 21.10910335 -2.8192772 22.53483509 -5 25 C-4.34 25 -3.68 25 -3 25 C-3.33 25.66 -3.66 26.32 -4 27 C-6.0625 27.625 -6.0625 27.625 -8 28 C-7.5875 26.783125 -7.175 25.56625 -6.75 24.3125 C-5.42437226 20.32299175 -4.13523079 16.32316151 -2.875 12.3125 C-2.37613281 10.72888672 -2.37613281 10.72888672 -1.8671875 9.11328125 C-1.02325225 6.08347765 -0.45686468 3.10947695 0 0 Z " fill="#545354" transform="translate(430,193)"/>
<path d="M0 0 C7.39258257 1.65113519 14.20639425 3.62035269 21 7 C18 8 15 9 12 10 C11.67 9.01 11.34 8.02 11 7 C10.01 6.67 9.02 6.34 8 6 C8 5.34 8 4.68 8 4 C7.4225 3.855625 6.845 3.71125 6.25 3.5625 C4.16666667 3.04166667 2.08333333 2.52083333 0 2 C0 1.34 0 0.68 0 0 Z " fill="#4B4A4D" transform="translate(380,158)"/>
<path d="M0 0 C0 0.66 0 1.32 0 2 C-1.98 2.99 -1.98 2.99 -4 4 C-4 4.99 -4 5.98 -4 7 C-4.66 7 -5.32 7 -6 7 C-6 7.99 -6 8.98 -6 10 C-6.99 9.67 -7.98 9.34 -9 9 C-11.16715557 9.87483915 -11.16715557 9.87483915 -13 11 C-13.33 10.34 -13.66 9.68 -14 9 C-16.02463255 8.34786708 -16.02463255 8.34786708 -18 8 C-16.845 7.608125 -15.69 7.21625 -14.5 6.8125 C-10.52388779 5.34091398 -7.16881477 3.35503627 -3.6640625 0.98828125 C-2 0 -2 0 0 0 Z " fill="#4A494A" transform="translate(394,252)"/>
<path d="M0 0 C-0.639375 0.268125 -1.27875 0.53625 -1.9375 0.8125 C-4.33131686 1.88667752 -4.33131686 1.88667752 -5 5 C-6.65 5.33 -8.3 5.66 -10 6 C-10.33 5.34 -10.66 4.68 -11 4 C-13.8159849 3.53101037 -13.8159849 3.53101037 -17.0625 3.375 C-18.16722656 3.30023438 -19.27195312 3.22546875 -20.41015625 3.1484375 C-21.26480469 3.09945313 -22.11945313 3.05046875 -23 3 C-23 2.67 -23 2.34 -23 2 C-21.21142578 1.80083984 -21.21142578 1.80083984 -19.38671875 1.59765625 C-17.82029322 1.41944017 -16.25388802 1.24104544 -14.6875 1.0625 C-13.90181641 0.97548828 -13.11613281 0.88847656 -12.30664062 0.79882812 C-11.54931641 0.71181641 -10.79199219 0.62480469 -10.01171875 0.53515625 C-9.31522217 0.456604 -8.61872559 0.37805176 -7.90112305 0.29711914 C-1.91519496 -0.63839832 -1.91519496 -0.63839832 0 0 Z " fill="#3E3D3D" transform="translate(371,264)"/>
<path d="M0 0 C5.19209404 -0.21192221 9.126739 0.4087311 14 2 C13.67 1.34 13.34 0.68 13 0 C19.15234375 0.5859375 19.15234375 0.5859375 21 1 C21.33 1.66 21.66 2.32 22 3 C15.34155124 6.32922438 6.65855058 2.86439416 0 1 C0 0.67 0 0.34 0 0 Z " fill="#373638" transform="translate(314,202)"/>
<path d="M0 0 C2.64 0 5.28 0 8 0 C7.34 0.66 6.68 1.32 6 2 C7.32 2 8.64 2 10 2 C12.25 4.5 12.25 4.5 14 7 C12.03740738 6.60388039 10.07992339 6.18238306 8.125 5.75 C6.48917969 5.40195313 6.48917969 5.40195313 4.8203125 5.046875 C2 4 2 4 0.6171875 1.890625 C0.41351563 1.26671875 0.20984375 0.6428125 0 0 Z " fill="#434143" transform="translate(207,169)"/>
<path d="M0 0 C3.65882521 3.3621637 6.14420341 6.36050852 8 11 C7.67 11.66 7.34 12.32 7 13 C4 11 4 11 3 8 C2.34 8 1.68 8 1 8 C0.67 5.36 0.34 2.72 0 0 Z " fill="#4B4A4B" transform="translate(443,114)"/>
<path d="M0 0 C0.66 0.66 1.32 1.32 2 2 C2.66 1.67 3.32 1.34 4 1 C5.32 2.32 6.64 3.64 8 5 C4.36804504 6.21065165 2.93468371 5.62784815 -0.6875 4.5625 C-1.68136719 4.27503906 -2.67523438 3.98757812 -3.69921875 3.69140625 C-4.45847656 3.46324219 -5.21773437 3.23507813 -6 3 C-6 2.67 -6 2.34 -6 2 C-4.02 2 -2.04 2 0 2 C0 1.34 0 0.68 0 0 Z " fill="#535051" transform="translate(259,183)"/>
<path d="M0 0 C0.66 1.32 1.32 2.64 2 4 C-2.54805635 4.17835515 -5.8794254 3.99785435 -10 2 C-10 1.67 -10 1.34 -10 1 C-6.59437148 0.22157062 -3.49234244 -0.09978121 0 0 Z " fill="#403C41" transform="translate(237,176)"/>
<path d="M0 0 C0.33 0 0.66 0 1 0 C1 2.97 1 5.94 1 9 C-1 8 -3 7 -5 6 C-5 4.68 -5 3.36 -5 2 C-2.525 2.495 -2.525 2.495 0 3 C0 2.01 0 1.02 0 0 Z " fill="#3E3E3F" transform="translate(431,173)"/>
<path d="M0 0 C0.66 0 1.32 0 2 0 C2.66 0.66 3.32 1.32 4 2 C5.34262065 1.70630173 6.67696283 1.3721042 8 1 C8.66 1.33 9.32 1.66 10 2 C9.34 3.32 8.68 4.64 8 6 C1.25 3.25 1.25 3.25 -1 1 C-0.67 0.67 -0.34 0.34 0 0 Z " fill="#3D3B3E" transform="translate(378,98)"/>
<path d="M0 0 C4.72065967 1.54269924 9.41664092 3.07794619 14 5 C10.52674819 6.1577506 7.63932552 6.06866652 4 6 C4 4.68 4 3.36 4 2 C2.68 2 1.36 2 0 2 C0 1.34 0 0.68 0 0 Z " fill="#69696B" transform="translate(333,140)"/>
<path d="M0 0 C1.54286547 2.31429821 2.89992755 4.54571028 4.1875 7 C4.55230469 7.680625 4.91710937 8.36125 5.29296875 9.0625 C6 11 6 11 5 14 C4.67 14 4.34 14 4 14 C3.6596875 12.329375 3.6596875 12.329375 3.3125 10.625 C2.39376342 6.83961627 2.39376342 6.83961627 -0.625 5.5625 C-1.40875 5.376875 -2.1925 5.19125 -3 5 C-3 4.34 -3 3.68 -3 3 C-2.01 3 -1.02 3 0 3 C0 2.01 0 1.02 0 0 Z " fill="#5D5D5D" transform="translate(451,127)"/>
<path d="M0 0 C2.31 0.33 4.62 0.66 7 1 C6.01 1.33 5.02 1.66 4 2 C4 2.66 4 3.32 4 4 C5.32 4.33 6.64 4.66 8 5 C3.65535464 4.39174965 -0.67551867 3.73832608 -5 3 C-5 2.67 -5 2.34 -5 2 C-3.35 1.67 -1.7 1.34 0 1 C0 0.67 0 0.34 0 0 Z " fill="#555556" transform="translate(297,194)"/>
<path d="M0 0 C3.3 0.99 6.6 1.98 10 3 C7 4 7 4 4 3 C3.67 3.99 3.34 4.98 3 6 C2.01 5.67 1.02 5.34 0 5 C0 3.35 0 1.7 0 0 Z " fill="#565656" transform="translate(370,154)"/>
<path d="M0 0 C0.33 0.66 0.66 1.32 1 2 C1.99 2.33 2.98 2.66 4 3 C4 4.32 4 5.64 4 7 C2.68 6.67 1.36 6.34 0 6 C0.66 6 1.32 6 2 6 C2 5.34 2 4.68 2 4 C-1.27773504 4.75150023 -1.27773504 4.75150023 -3 8 C-3.66 7.67 -4.32 7.34 -5 7 C-3.35 4.69 -1.7 2.38 0 0 Z " fill="#4E4E4F" transform="translate(420,223)"/>
<path d="M0 0 C5.54050113 0.56825653 10.03715966 2.62886517 15 5 C11.19563069 6.13167948 9.63362202 5.64378139 6 4 C4.00379834 3.32204472 2.00461299 2.65266469 0 2 C0 1.34 0 0.68 0 0 Z " fill="#787879" transform="translate(351,147)"/>
<path d="M0 0 C2.38564077 0.57584432 4.66682784 1.22227595 7 2 C7.8125 3.9375 7.8125 3.9375 8 6 C7.34 6.66 6.68 7.32 6 8 C6 7.34 6 6.68 6 6 C5.38125 5.7525 4.7625 5.505 4.125 5.25 C1.64931313 3.79371361 1.04874998 2.62187494 0 0 Z " fill="#474548" transform="translate(408,121)"/>
<path d="M0 0 C0.33 0 0.66 0 1 0 C1 4.66666667 1 9.33333333 1 14 C0.01 14.33 -0.98 14.66 -2 15 C-1.47462276 9.9697924 -0.89405214 4.98114761 0 0 Z " fill="#6E6D6E" transform="translate(430,193)"/>
<path d="M0 0 C0.99 1.32 1.98 2.64 3 4 C-0.93670488 5.31223496 -3.12488144 4.24296256 -7 3 C-4.66785852 1.79371992 -2.50357861 0.8345262 0 0 Z " fill="#4B4B4D" transform="translate(337,204)"/>
<path d="M0 0 C2.6875 0.625 2.6875 0.625 5 2 C5.33 2.99 5.66 3.98 6 5 C2.7 4.34 -0.6 3.68 -4 3 C-2.68 2.01 -1.36 1.02 0 0 Z " fill="#5B5B5D" transform="translate(286,191)"/>
<path d="M0 0 C0.625 2.0625 0.625 2.0625 1 4 C0.01 4.495 0.01 4.495 -1 5 C-3.4750171 3.88568235 -5.67883419 2.41849022 -8 1 C-3 -1.5 -3 -1.5 0 0 Z " fill="#4A4A4B" transform="translate(394,104)"/>
<path d="M0 0 C1.65 0.33 3.3 0.66 5 1 C5 1.99 5 2.98 5 4 C1.7 3.67 -1.6 3.34 -5 3 C-5 2.67 -5 2.34 -5 2 C-3.35 1.67 -1.7 1.34 0 1 C0 0.67 0 0.34 0 0 Z " fill="#575759" transform="translate(363,93)"/>
<path d="M0 0 C0.33 0.66 0.66 1.32 1 2 C0.06553465 4.03144641 -0.93224776 6.03533587 -2 8 C-4 4.25 -4 4.25 -4 2 C-2.68 1.34 -1.36 0.68 0 0 Z " fill="#575757" transform="translate(449,235)"/>
<path d="M0 0 C1.38232443 1.62626404 2.71937515 3.2925002 4 5 C-0.455 4.01 -0.455 4.01 -5 3 C-5 2.34 -5 1.68 -5 1 C-2 0 -2 0 0 0 Z " fill="#615F62" transform="translate(217,171)"/>
<path d="M0 0 C0.66 0.33 1.32 0.66 2 1 C2.1875 3.375 2.1875 3.375 2 6 C1.01 6.66 0.02 7.32 -1 8 C-1.66 7.34 -2.32 6.68 -3 6 C-2.34 5.34 -1.68 4.68 -1 4 C-0.3574765 1.93125966 -0.3574765 1.93125966 0 0 Z " fill="#2C2C2C" transform="translate(295,262)"/>
<path d="M0 0 C4.95 0.99 4.95 0.99 10 2 C10 2.33 10 2.66 10 3 C7.36 3.33 4.72 3.66 2 4 C2 3.01 2 2.02 2 1 C1.34 0.67 0.68 0.34 0 0 Z " fill="#67676A" transform="translate(276,204)"/>
</svg>
